<svg width="147" height="146" viewBox="0 0 147 146" fill="none" xmlns="http://www.w3.org/2000/svg">
<path fill-rule="evenodd" clip-rule="evenodd" d="M71.656 1.58102C61.522 4.03502 50.349 10.553 41.888 18.948C35.7 25.086 29 34.715 29 37.467C29 37.76 35.92 38 44.378 38C61.264 38 64.316 38.704 70.336 43.991C72.213 45.638 74.717 49.239 75.902 51.993C77.749 56.287 78.452 57 80.839 57C84.137 57 87.722 60.043 88.614 63.599C90.473 71.004 85.528 83.833 77.784 91.701L72.664 96.903L78.582 109.546L84.5 122.189L91.5 121.654C113.427 119.978 135.706 102.73 142.939 81.832C143.954 78.9 145.094 75.038 145.472 73.25L146.159 70H134.1C121.224 70 116.445 68.87 110.372 64.392C102.482 58.572 97.889 46.408 99.951 36.792C101.05 31.667 101.038 31.624 97.577 28.071C91.27 21.598 89.333 12.926 92.5 5.34602C93.325 3.37102 94 1.36102 94 0.87802C94 -0.49198 78.159 0.00701988 71.656 1.58102ZM101.595 5.21402C97.814 10.985 99.1 18.846 104.444 22.626C112.079 28.026 111.666 27.244 109.729 32.649C106.5 41.658 107.668 48.907 113.311 54.869C118.235 60.072 121.46 61 134.611 61H146.287L145.628 53.911C144.393 40.622 135.936 24.271 125.763 15.504C120.618 11.071 109.516 4.36902 105.831 3.47302C103.71 2.95702 102.84 3.31502 101.595 5.21402ZM25.492 48.25C25.191 49.487 24.845 52.935 24.723 55.912L24.5 61.324L36 67.097C42.325 70.272 48.052 72.899 48.727 72.935C49.402 72.971 52.438 70.594 55.475 67.653C58.511 64.712 62.796 61.494 64.998 60.501C69.766 58.351 70.06 56.413 66.297 51.941C61.917 46.736 58.85 46 41.551 46C26.292 46 26.029 46.037 25.492 48.25Z" fill="#00B73C"/>
<path fill-rule="evenodd" clip-rule="evenodd" d="M71.099 66.691C68.266 67.706 63.907 70.934 58.86 75.756L51.022 83.244L45.761 80.712C22.536 69.53 14.849 66 13.721 66C11.623 66 3.85899 74.476 4.49399 76.074C4.80499 76.859 11.383 81.775 19.112 87C26.841 92.225 33.622 97.049 34.181 97.721C34.918 98.607 33.619 100.596 29.446 104.971C26.283 108.287 23.134 111 22.447 111C21.76 111 18.791 109.879 15.849 108.51C12.907 107.14 9.71899 106.015 8.76299 106.01C6.68299 105.998 0.0649946 112.851 0.0269946 115.057C0.00999464 116.014 2.76799 117.94 7.18399 120.057C16.263 124.408 21.562 129.6 26 138.489C30.336 147.175 32.181 147.756 37.33 142.056L40.981 138.015L38.399 132.257C36.978 129.091 35.57 125.901 35.27 125.169C34.67 123.707 45.667 112 47.639 112C48.3 112 53.418 118.33 59.013 126.067C64.608 133.804 69.851 140.389 70.664 140.701C72.256 141.312 80 134.445 80 132.422C80 131.057 75.387 120.842 68.111 106.092L62.976 95.685L69.34 89.092C76.708 81.461 80.067 75.514 80.32 69.652C80.483 65.888 80.267 65.482 78 65.307C76.625 65.201 73.52 65.824 71.099 66.691Z" fill="#0663FC"/>
</svg>
