<svg width="609" height="146" viewBox="0 0 609 146" fill="none" xmlns="http://www.w3.org/2000/svg">
<path fill-rule="evenodd" clip-rule="evenodd" d="M71.656 1.58102C61.522 4.03502 50.349 10.553 41.888 18.948C35.7 25.086 29 34.715 29 37.467C29 37.76 35.92 38 44.378 38C61.264 38 64.316 38.704 70.336 43.991C72.213 45.638 74.717 49.239 75.902 51.993C77.749 56.287 78.452 57 80.839 57C84.137 57 87.722 60.043 88.614 63.599C90.473 71.004 85.528 83.833 77.784 91.701L72.664 96.903L78.582 109.546L84.5 122.189L91.5 121.654C113.427 119.978 135.706 102.73 142.939 81.832C143.954 78.9 145.094 75.038 145.472 73.25L146.159 70H134.1C121.224 70 116.445 68.87 110.372 64.392C102.482 58.572 97.889 46.408 99.951 36.792C101.05 31.667 101.038 31.624 97.577 28.071C91.27 21.598 89.333 12.926 92.5 5.34602C93.325 3.37102 94 1.36102 94 0.87802C94 -0.49198 78.159 0.00701988 71.656 1.58102ZM101.595 5.21402C97.814 10.985 99.1 18.846 104.444 22.626C112.079 28.026 111.666 27.244 109.729 32.649C106.5 41.658 107.668 48.907 113.311 54.869C118.235 60.072 121.46 61 134.611 61H146.287L145.628 53.911C144.393 40.622 135.936 24.271 125.763 15.504C120.618 11.071 109.516 4.36902 105.831 3.47302C103.71 2.95702 102.84 3.31502 101.595 5.21402ZM25.492 48.25C25.191 49.487 24.845 52.935 24.723 55.912L24.5 61.324L36 67.097C42.325 70.272 48.052 72.899 48.727 72.935C49.402 72.971 52.438 70.594 55.475 67.653C58.511 64.712 62.796 61.494 64.998 60.501C69.766 58.351 70.06 56.413 66.297 51.941C61.917 46.736 58.85 46 41.551 46C26.292 46 26.029 46.037 25.492 48.25Z" fill="#00B73C"/>
<path fill-rule="evenodd" clip-rule="evenodd" d="M71.099 66.691C68.266 67.706 63.907 70.934 58.86 75.756L51.022 83.244L45.761 80.712C22.536 69.53 14.849 66 13.721 66C11.623 66 3.85899 74.476 4.49399 76.074C4.80499 76.859 11.383 81.775 19.112 87C26.841 92.225 33.622 97.049 34.181 97.721C34.918 98.607 33.619 100.596 29.446 104.971C26.283 108.287 23.134 111 22.447 111C21.76 111 18.791 109.879 15.849 108.51C12.907 107.14 9.71899 106.015 8.76299 106.01C6.68299 105.998 0.0649946 112.851 0.0269946 115.057C0.00999464 116.014 2.76799 117.94 7.18399 120.057C16.263 124.408 21.562 129.6 26 138.489C30.336 147.175 32.181 147.756 37.33 142.056L40.981 138.015L38.399 132.257C36.978 129.091 35.57 125.901 35.27 125.169C34.67 123.707 45.667 112 47.639 112C48.3 112 53.418 118.33 59.013 126.067C64.608 133.804 69.851 140.389 70.664 140.701C72.256 141.312 80 134.445 80 132.422C80 131.057 75.387 120.842 68.111 106.092L62.976 95.685L69.34 89.092C76.708 81.461 80.067 75.514 80.32 69.652C80.483 65.888 80.267 65.482 78 65.307C76.625 65.201 73.52 65.824 71.099 66.691Z" fill="#0663FC"/>
<path fill-rule="evenodd" clip-rule="evenodd" d="M256 36C251.734 40.266 254.595 47 260.674 47C264.455 47 267 44.276 267 40.228C267 34.65 260.029 31.971 256 36ZM346.5 37.412C341.279 39.732 338.713 43.415 338.226 49.289C337.844 53.896 338.127 54.998 340.384 57.68C341.813 59.379 346.562 62.63 350.936 64.906C360.336 69.796 363 72.735 363 78.212C363 81.271 362.318 82.835 359.957 85.197C357.13 88.024 356.514 88.207 351.289 87.774C346.519 87.378 345.228 86.82 342.796 84.097C341.218 82.332 339.663 79.563 339.339 77.944C338.284 72.67 336 75.11 336 81.509C336 87.515 344.661 91.787 354.486 90.627C360.1 89.964 363.42 87.89 366.839 82.908C368.758 80.112 369.102 78.554 368.755 74.228C368.215 67.498 365.215 64.181 355 59.015C345.878 54.402 343.6 52.065 343.6 47.321C343.6 42.09 347.507 39 354.122 39C360.62 39 362.737 40.23 365.002 45.324L366.859 49.5L366.929 43.725C366.994 38.417 366.793 37.872 364.435 36.975C360.767 35.581 350.031 35.842 346.5 37.412ZM173 43.667C173 50.582 173.694 51.162 175.465 45.728C176.682 41.994 180.037 40.035 185.25 40.015L189 40V63.594C189 86.346 188.929 87.206 187 87.71C182.027 89.011 185.916 90 196 90C206.921 90 209.07 89.383 204.75 87.487C202.521 86.509 202.497 86.282 202.232 63.25L201.963 40H205.416C211.074 40 213.58 41.494 215.352 45.922C216.25 48.165 217.212 50 217.492 50C217.771 50 218 47.075 218 43.5V37H195.5H173V43.667ZM565.082 39.401C564.378 40.249 564.126 41.821 564.503 43.009C565.028 44.665 565.846 45.048 568.335 44.807C571.117 44.537 571.5 44.137 571.5 41.5C571.5 39.018 571.054 38.448 568.914 38.199C567.492 38.034 565.768 38.575 565.082 39.401ZM588.75 43.689C587.355 44.054 587 45.246 587 49.573C587 54.695 586.86 55 584.5 55C582.944 55 582 55.567 582 56.5C582 57.433 582.944 58 584.5 58H587V70.532C587 84.887 588.266 89.527 592.471 90.582C596.188 91.515 601.031 90.32 603.702 87.81C607.383 84.352 606.601 82.713 602.441 85.167C599.554 86.871 598.431 87.062 596.495 86.18C593.451 84.793 592.811 81.357 593.198 68.5L593.5 58.5L599.25 58.2C603.469 57.98 605 57.514 605 56.45C605 55.341 603.557 55 598.858 55H592.715L593.342 49C594.009 42.624 593.791 42.372 588.75 43.689ZM223.25 55.778C219.262 57.79 216 59.757 216 60.149C216 60.541 217.012 61.005 218.25 61.18C220.444 61.492 220.5 61.805 220.5 73.832C220.5 84.422 220.253 86.344 218.75 87.442C217.787 88.145 217 89.008 217 89.36C217 89.712 221.725 90 227.5 90C233.833 90 238 89.603 238 89C238 88.45 237.116 88 236.035 88C232.889 88 232 84.826 232 73.601C232 61.791 232.468 61 239.456 61C242.312 61 243.275 61.51 244.182 63.5C246.085 67.677 247 66.336 247 59.368V52.737L242.879 53.289C240.061 53.667 237.69 54.877 235.379 57.117L232 60.392V56.196C232 53.888 231.662 52.027 231.25 52.059C230.838 52.092 227.238 53.765 223.25 55.778ZM256.761 55.843C252.504 57.854 249.017 59.808 249.011 60.184C249.005 60.56 250.238 61.01 251.75 61.184L254.5 61.5V73.832C254.5 84.422 254.253 86.344 252.75 87.442C251.787 88.145 251 89.008 251 89.36C251 89.712 255.5 90 261 90C270.987 90 272.994 89.349 268.75 87.487C266.558 86.525 266.493 86.056 266.226 69.25C266.076 59.763 265.626 52.042 265.226 52.093C264.827 52.143 261.017 53.831 256.761 55.843ZM282.25 55.778C278.262 57.79 275 59.757 275 60.149C275 60.541 276.012 61.005 277.25 61.18L279.5 61.5V82.832C279.5 101.994 279.322 104.294 277.75 105.442C276.788 106.145 276 107.008 276 107.36C276 107.712 280.725 108 286.5 108C292.833 108 297 107.603 297 107C297 106.45 296.116 106 295.035 106C292.27 106 291 103.03 291 96.566V91L295.75 90.994C305.506 90.983 313.677 86.41 316.649 79.298C318.674 74.451 318.372 64.649 316.058 60.113C311.608 51.39 301.926 49.614 294.479 56.153L291 59.207V55.604C291 53.622 290.663 52.027 290.25 52.059C289.837 52.092 286.238 53.765 282.25 55.778ZM381 57C375.703 59.799 375.351 60.46 379.388 60.029C382.445 59.703 382.969 61.835 382.985 74.677C383 86.761 383.021 86.872 385.75 89.025C388.948 91.549 395.416 91.36 399.236 88.631C400.481 87.742 402.588 86.23 403.919 85.273L406.338 83.532L405.732 87.266C405.398 89.32 405.537 91 406.041 91C407.565 91 418 85.637 418 84.853C418 84.452 416.762 84.208 415.25 84.312L412.5 84.5L412.224 69.25C412.072 60.862 411.622 54 411.224 54C409.612 54 398 59.503 398 60.268C398 60.72 399.555 60.799 401.455 60.442C404.506 59.87 404.979 60.07 405.5 62.147C405.825 63.441 405.957 68.309 405.795 72.964C405.503 81.347 405.468 81.449 402.102 83.714C398.402 86.203 392.172 86.772 390.2 84.8C389.375 83.975 389 78.978 389 68.8C389 57.602 388.696 54.011 387.75 54.047C387.063 54.073 384.025 55.402 381 57ZM427 57C421.703 59.799 421.351 60.46 425.388 60.029C428.372 59.711 428.968 61.808 428.985 72.685C429.001 83.535 427.992 88 425.525 88C424.686 88 424 88.45 424 89C424 89.588 427.5 90 432.5 90C437.175 90 441 89.58 441 89.066C441 88.553 439.762 87.99 438.25 87.816L435.5 87.5L435.219 75.254L434.939 63.008L438.219 61.008C441.871 58.781 447.957 58.357 449.8 60.2C451.061 61.461 451.557 83.385 450.393 86.418C450.059 87.288 448.934 88 447.893 88C446.852 88 446 88.45 446 89C446 89.588 449.5 90 454.5 90C459.5 90 463 89.588 463 89C463 88.45 462.116 88 461.035 88C457.892 88 457 84.828 457 73.647V63.163L460.368 61.082C462.366 59.847 465.427 59 467.893 59C473.267 59 474 60.815 474 74.131C474 84.341 473.067 88 470.465 88C469.659 88 469 88.45 469 89C469 89.593 472.686 90 478.059 90C483.844 90 486.895 89.639 486.5 89C486.16 88.45 485.064 88 484.063 88C480.776 88 480.168 85.653 479.832 71.656C479.517 58.517 479.381 57.722 477.139 55.909C474.481 53.759 468.12 53.357 464.684 55.122C463.483 55.739 461.262 57.399 459.75 58.809C457.759 60.666 457 60.957 457 59.861C457 59.029 455.895 57.311 454.545 56.043C451.208 52.907 443.812 53.516 438.799 57.339C434.346 60.736 433.691 60.684 434.5 57C435.337 53.189 434.214 53.189 427 57ZM495 57C489.703 59.799 489.351 60.46 493.388 60.029C496.397 59.708 496.968 61.817 496.985 73.316C497 84.286 496.11 88 493.465 88C492.659 88 492 88.45 492 89C492 89.588 495.5 90 500.5 90C505.5 90 509 89.588 509 89C509 88.45 507.923 88 506.607 88C503.365 88 503 86.573 503 73.904V62.971L506.25 60.989C509.876 58.778 515.963 58.363 517.8 60.2C518.609 61.009 519 65.599 519 74.294C519 86.346 518.87 87.221 517 87.71C512.533 88.878 515.472 90 523 90C527.667 90 531 89.583 531 89C531 88.45 530.116 88 529.035 88C525.889 88 525 84.825 525 73.586V63.041L528.96 61.02C534.182 58.356 539.579 58.344 540.997 60.994C541.63 62.178 541.949 67.761 541.782 74.744C541.516 85.845 541.375 86.555 539.25 87.487C535.093 89.311 536.945 90 546 90C551.333 90 555 89.593 555 89C555 88.45 553.965 88 552.7 88C548.478 88 548 86.399 548 72.255C548 59.419 547.906 58.815 545.545 56.455C541.705 52.614 535.435 53.022 529.577 57.493C526.41 59.91 525 60.527 525 59.493C525 56.596 521.188 54 516.934 54C512.319 54 509.698 55.127 505.75 58.809L503 61.374V57.687C503 53.227 502.262 53.164 495 57ZM563.75 56.663C557.261 59.625 556.484 60.864 561.25 60.647L564.5 60.5L564.79 72C565.132 85.533 564.699 88 561.981 88C560.891 88 560 88.45 560 89C560 89.593 563.667 90 569 90C574.333 90 578 89.593 578 89C578 88.45 576.891 88 575.535 88C574.122 88 572.629 87.175 572.035 86.066C571.453 84.978 571 77.539 571 69.066C571 60.78 570.663 54.009 570.25 54.019C569.837 54.03 566.913 55.219 563.75 56.663ZM292.75 61.08C291.254 61.951 291.002 63.654 291.015 72.8C291.024 78.685 291.37 84.034 291.786 84.687C292.201 85.341 293.83 86.365 295.405 86.964C303.099 89.889 309.001 76.118 304.585 65.548C302.47 60.488 297.189 58.494 292.75 61.08Z" fill="#0663FC" stroke="#0663FC"/>
</svg>
